<svg width="59" height="204" viewBox="0 0 59 204" fill="none" xmlns="http://www.w3.org/2000/svg">
<g clip-path="url(#clip0)">
<path d="M0 11.5157C0 5.15726 5.13772 0 11.4721 0C17.8065 0 22.9442 5.15726 22.9442 11.5157C22.9442 17.8742 17.8105 23.0315 11.4721 23.0315C5.13373 23.0315 0 17.8782 0 11.5157Z" fill="#F1F6F9"/>
<path d="M47.5278 23.0315C53.8637 23.0315 58.9999 17.8757 58.9999 11.5157C58.9999 5.15577 53.8637 0 47.5278 0C41.1919 0 36.0557 5.15577 36.0557 11.5157C36.0557 17.8757 41.1919 23.0315 47.5278 23.0315Z" fill="#F1F6F9"/>
<path d="M0 47.7087C0 41.3502 5.13772 36.1929 11.4721 36.1929C17.8065 36.1929 22.9442 41.3502 22.9442 47.7087C22.9442 54.0672 17.8065 59.2244 11.4721 59.2244C5.13772 59.2244 0 54.0712 0 47.7087Z" fill="#F1F6F9"/>
<path d="M47.5278 59.2244C53.8637 59.2244 58.9999 54.0686 58.9999 47.7087C58.9999 41.3487 53.8637 36.1929 47.5278 36.1929C41.1919 36.1929 36.0557 41.3487 36.0557 47.7087C36.0557 54.0686 41.1919 59.2244 47.5278 59.2244Z" fill="#F1F6F9"/>
<path d="M0 83.9055C0 77.547 5.13772 72.3898 11.4721 72.3898C17.8065 72.3898 22.9442 77.547 22.9442 83.9055C22.9442 90.264 17.8065 95.4212 11.4721 95.4212C5.13772 95.4212 0 90.264 0 83.9055Z" fill="#F1F6F9"/>
<path d="M47.5278 95.4212C53.8637 95.4212 58.9999 90.2655 58.9999 83.9055C58.9999 77.5455 53.8637 72.3898 47.5278 72.3898C41.1919 72.3898 36.0557 77.5455 36.0557 83.9055C36.0557 90.2655 41.1919 95.4212 47.5278 95.4212Z" fill="#F1F6F9"/>
<path d="M0 120.098C0 113.74 5.13772 108.583 11.4721 108.583C17.8065 108.583 22.9442 113.74 22.9442 120.098C22.9442 126.457 17.8065 131.614 11.4721 131.614C5.13772 131.614 0 126.457 0 120.098Z" fill="#F1F6F9"/>
<path d="M47.5278 131.614C53.8637 131.614 58.9999 126.458 58.9999 120.098C58.9999 113.738 53.8637 108.583 47.5278 108.583C41.1919 108.583 36.0557 113.738 36.0557 120.098C36.0557 126.458 41.1919 131.614 47.5278 131.614Z" fill="#F1F6F9"/>
<path d="M0 156.291C0 149.933 5.13772 144.776 11.4721 144.776C17.8065 144.776 22.9442 149.933 22.9442 156.291C22.9442 162.65 17.8065 167.807 11.4721 167.807C5.13772 167.807 0 162.65 0 156.291Z" fill="#F1F6F9"/>
<path d="M47.5278 167.807C53.8637 167.807 58.9999 162.651 58.9999 156.291C58.9999 149.931 53.8637 144.776 47.5278 144.776C41.1919 144.776 36.0557 149.931 36.0557 156.291C36.0557 162.651 41.1919 167.807 47.5278 167.807Z" fill="#F1F6F9"/>
<path d="M0 192.484C0 186.126 5.13772 180.969 11.4721 180.969C17.8065 180.969 22.9442 186.126 22.9442 192.484C22.9442 198.843 17.8065 204 11.4721 204C5.13772 204 0 198.847 0 192.484Z" fill="#F1F6F9"/>
<path d="M47.5278 204C53.8637 204 58.9999 198.844 58.9999 192.484C58.9999 186.124 53.8637 180.969 47.5278 180.969C41.1919 180.969 36.0557 186.124 36.0557 192.484C36.0557 198.844 41.1919 204 47.5278 204Z" fill="#F1F6F9"/>
</g>
<defs>
<clipPath id="clip0">
<rect width="59" height="204" fill="white"/>
</clipPath>
</defs>
</svg>
